<svg xmlns="http://www.w3.org/2000/svg" xml:space="preserve" fill-rule="evenodd" stroke-linejoin="round" stroke-miterlimit="2" clip-rule="evenodd" viewBox="0 0 553 282">
	<path fill="#fc4539" fill-rule="nonzero" d="M.552 151.03h20.221v110.299h33.274v18.383H.552V151.03ZM164.73 221.805v39.524h287.111c6.801 0 10.478-3.125 10.478-12.687v-11.213c0-11.947-3.86-15.624-13.052-15.624H164.73Zm0-52.393v34.01h283.434c7.538 0 12.133-3.31 12.133-13.605v-7.166c0-9.195-3.125-13.24-10.295-13.24H164.73Zm315.79 11.213v4.596c0 13.239-4.045 21.693-13.053 25.922 10.845 4.23 15.074 13.969 15.074 27.575v10.476c0 19.857-10.479 30.518-30.7 30.518H144.51V151.03h306.045c20.957 0 29.965 9.742 29.965 29.595M521.878 149.559c19.67 0 29.78 11.764 29.78 32.354v4.044H532.54v-5.333c0-9.191-3.676-12.683-10.11-12.683-6.435 0-10.112 3.492-10.112 12.683 0 26.475 39.525 31.437 39.525 68.202 0 20.59-10.295 32.355-30.148 32.355-19.855 0-30.15-11.765-30.15-32.355v-7.902h19.12v9.19c0 9.193 4.044 12.499 10.478 12.499s10.478-3.306 10.478-12.498c0-26.474-39.524-31.436-39.524-68.202 0-20.59 10.111-32.354 29.781-32.354M24.634 87.872H44.12l-9.743-65.077-9.743 65.077Zm46.14 40.809H50.369l-3.492-23.347H22.06l-3.492 23.347H0L20.59 0h29.596l20.588 128.68ZM87.502 238.902h19.486l-9.743-65.077-9.743 65.077Zm46.14 40.809h-20.405l-3.492-23.347H84.928l-3.492 23.347H62.868l20.59-128.681h29.596l20.588 128.68ZM98.165 35.479v93.203H79.966V0h25.368l20.774 77.025V0h18.014v128.682H123.35L98.165 35.479ZM152.758 0h62.503v18.384h-21.14v110.298h-20.22V18.384h-21.143V0ZM244.301 128.682h-20.22V0h20.22v55.15h22.978V0h20.59v128.68h-20.59V73.534h-22.978v55.149ZM322.792 54.23h78.11v18.384h-78.11V110.3H454.55v18.382H302.571V0h152.15v18.383H322.792V54.23ZM510.297 91.365 524.084 0h28.126v128.68h-19.118V36.4l-13.972 92.282h-19.118l-15.074-90.995v90.995H467.28V0h28.126l14.891 91.364Z"/>
</svg>