<svg xmlns="http://www.w3.org/2000/svg" xml:space="preserve" fill-rule="evenodd" stroke-linejoin="round" stroke-miterlimit="2" clip-rule="evenodd" viewBox="0 0 2757 1042">
	<path fill="#f0493e" fill-rule="nonzero" d="M2402.127 885.03H354.354c-108.925 0-197.629-88.708-197.629-197.63V354.518c0-109.08 88.704-197.792 197.63-197.792h2047.772c108.925 0 197.63 88.713 197.63 197.792v332.884c0 108.92-88.705 197.629-197.63 197.629Zm197.63-824.53C2543.334 22.258 2475.16 0 2402.126 0H354.354C158.917 0 0 159.08 0 354.517v332.884c0 195.433 158.917 354.354 354.354 354.354h2047.773c73.033 0 141.208-22.258 197.63-60.342v59.871h156.724V354.517c0-122.246-62.216-230.388-156.725-294.017Z"/>
</svg>